Coordinates
version=1
nRows=13
nColumns=40
inDegrees=yes

Units are S.I. units (second, meters, Newtons, ...)
Angles are in degrees.

endheader
time	pelvis_tilt	pelvis_list	pelvis_rotation	pelvis_tx	pelvis_ty	pelvis_tz	hip_flexion_r	hip_adduction_r	hip_rotation_r	knee_angle_r	knee_angle_r_beta	ankle_angle_r	subtalar_angle_r	mtp_angle_r	hip_flexion_l	hip_adduction_l	hip_rotation_l	knee_angle_l	knee_angle_l_beta	ankle_angle_l	subtalar_angle_l	mtp_angle_l	lumbar_extension	lumbar_bending	lumbar_rotation	arm_flex_r	arm_add_r	arm_rot_r	elbow_flex_r	pro_sup_r	wrist_flex_r	wrist_dev_r	arm_flex_l	arm_add_l	arm_rot_l	elbow_flex_l	pro_sup_l	wrist_flex_l	wrist_dev_l
     22.36614286	     -0.26231019	     -5.75674318	      4.99984746	      0.99945549	      0.91419416	      0.56429226	     12.14861220	      8.58015071	    -10.02875198	     27.87445330	     27.87445330	     18.30714976	    -11.71735921	     -0.36961927	     28.71055795	    -15.28763723	      3.97295981	     54.53189730	     54.53189730	     17.57840038	    -19.49617876	     21.14644775	    -10.35956516	      5.15002985	      2.77088239	     32.73828581	    -16.36936632	     -5.93012012	     40.09089048	     45.89089353	      0.00000000	      0.00000000	     -1.05223115	     -7.54988105	      5.26795881	     27.73290273	     45.86560006	      0.00000000	      0.00000000
     22.38978571	     -0.27643640	     -5.41984535	      5.87753048	      0.99739670	      0.91469218	      0.56409986	     11.86958453	      8.20842096	    -10.57189106	     27.65407569	     27.65407569	     18.38547635	    -11.94994089	     -0.24240525	     29.83494042	    -14.36342834	      4.50468431	     51.70131268	     51.70131268	     16.85758074	    -19.44124394	     20.84399648	    -10.45242305	      4.73021329	      2.77174768	     35.91584309	    -16.49464876	     -6.08544184	     42.28529124	     45.83401040	      0.00000000	      0.00000000	     -3.50351604	     -7.33069515	      5.73427090	     26.31829872	     45.74232826	      0.00000000	      0.00000000
     22.41342857	     -0.40019106	     -5.12949655	      6.71039052	      0.99538544	      0.91548291	      0.56373301	     11.57863452	      7.83692347	    -11.25189412	     27.22313168	     27.22313168	     18.43928359	    -11.81459462	      0.00159937	     30.58575741	    -13.48549189	      4.88681304	     48.06183014	     48.06183014	     15.03288727	    -19.35760845	     18.37469405	    -10.43895115	      4.39799777	      3.45929176	     38.00450456	    -17.45234835	     -5.72839031	     46.35466251	     45.66794644	      0.00000000	      0.00000000	     -5.50598289	     -7.71473081	     10.35964923	     25.18791010	     44.85654616	      0.00000000	      0.00000000
     22.43707143	     -0.55940527	     -4.76883269	      7.45829065	      0.99345229	      0.91660405	      0.56311871	     11.19576135	      7.37000726	    -11.95125402	     26.61925806	     26.61925806	     18.41351031	    -11.49394369	      0.01858429	     30.98752092	    -12.45843146	      5.30389034	     44.07512677	     44.07512677	     13.61484207	    -19.15974963	     17.99523831	    -10.40792509	      3.98596240	      3.47484426	     41.08747503	    -17.46911214	     -5.81723203	     48.51673015	     45.61041949	      0.00000000	      0.00000000	     -7.72122417	     -7.71111916	     10.61099824	     24.45531785	     44.77746354	      0.00000000	      0.00000000
     22.46071429	     -0.79076839	     -4.50828942	      8.11978707	      0.99168734	      0.91770696	      0.56243013	     10.80579028	      6.97994872	    -12.75699457	     25.87899120	     25.87899120	     18.27611262	    -10.88231977	     -0.25614272	     30.98464051	    -11.67588470	      5.45443801	     39.50137721	     39.50137721	     10.52018355	    -18.87936957	     13.60779619	    -10.30213116	      3.67472884	      3.91515045	     43.24490991	    -18.08145361	     -5.32229863	     52.28297008	     45.46914194	      0.00000000	      0.00000000	    -10.00350314	     -8.04000294	     11.49109491	     25.14200596	     44.58554851	      0.00000000	      0.00000000
     22.48435714	     -1.01298563	     -4.23018152	      8.72713434	      0.98999950	      0.91890867	      0.56144596	     10.34896740	      6.55529634	    -13.59682247	     25.07585907	     25.07585907	     18.13226863	    -10.14285007	     -0.52407747	     30.78184473	    -10.85922856	      5.69183968	     35.09362255	     35.09362255	      8.11005000	    -18.24567687	     11.45575661	    -10.22696145	      3.37969193	      4.15151622	     45.60220471	    -18.38995177	     -4.84122721	     55.55809595	     45.35618212	      0.00000000	      0.00000000	    -12.01480508	     -8.32627221	     12.51420482	     25.73598202	     44.39289084	      0.00000000	      0.00000000
     22.50800000	     -1.19853475	     -4.00354187	      9.21410636	      0.98848294	      0.92015934	      0.56052294	      9.81086877	      6.27139298	    -14.15456745	     24.19689357	     24.19689357	     18.00557764	     -9.59486126	     -0.47174641	     30.48317881	    -10.23117563	      5.80204152	     31.17738958	     31.17738958	      6.94977240	    -16.70896381	     11.86864235	    -10.10959170	      3.10607263	      4.35563630	     48.14887602	    -18.24082509	     -4.74147177	     57.53186393	     45.29799853	      0.00000000	      0.00000000	    -13.57220876	     -8.46015116	     12.71839317	     25.55289482	     44.33536847	      0.00000000	      0.00000000
     22.53164286	     -1.55412075	     -3.92631577	      9.69739801	      0.98692643	      0.92087386	      0.55938556	      9.55551843	      6.09953688	    -14.75236108	     23.45966356	     23.45966356	     17.91764239	     -9.14931801	     -0.45082288	     30.45989777	     -9.81180929	      5.74578973	     27.87282195	     27.87282195	      6.07335613	    -14.59455875	     12.22382527	     -9.75651849	      3.03110871	      4.71924871	     50.47009197	    -18.13132098	     -4.61337990	     59.31481543	     45.24362600	      0.00000000	      0.00000000	    -14.71847430	     -8.46637813	     12.81542394	     25.60947419	     44.29928660	      0.00000000	      0.00000000
     22.55528571	     -1.56511130	     -3.74817980	     10.06741447	      0.98584873	      0.92215837	      0.55816480	      8.71328463	      5.87924244	    -15.42932293	     22.44681510	     22.44681510	     17.85750869	     -8.13014740	     -0.55680810	     29.85892149	     -9.51657338	      5.29599035	     24.90327888	     24.90327888	      5.46071962	    -11.93400921	     12.11058866	     -9.87191652	      2.81911059	      4.54878351	     52.26491241	    -17.49750753	     -4.08880018	     62.19972147	     45.13457294	      0.00000000	      0.00000000	    -16.11713056	     -8.57614469	     12.93934534	     26.18416110	     44.25183780	      0.00000000	      0.00000000
     22.57892857	     -1.73664182	     -3.82919457	     10.44151910	      0.98472353	      0.92253226	      0.55679121	      8.21766470	      5.85760029	    -16.25037913	     21.66772966	     21.66772966	     17.71287132	     -7.12128167	     -1.27331155	     29.77948533	     -9.48486752	      4.78640940	     22.92407598	     22.92407598	      4.72357184	     -9.23027173	     10.39457320	     -9.86865994	      2.87545386	      5.09568917	     52.78430188	    -18.35588721	     -2.68339169	     68.10228949	     44.90699424	      0.00000000	      0.00000000	    -17.75251365	     -9.23426379	     13.45042421	     29.52181444	     44.15753526	      0.00000000	      0.00000000
     22.60257143	     -1.86867043	     -3.80299883	     10.76012953	      0.98361232	      0.92308704	      0.55523566	      7.65050538	      5.82060933	    -16.64818007	     20.84153384	     20.84153384	     17.62766757	     -6.65613851	     -1.31233064	     29.51308497	     -9.27622749	      4.56784953	     21.29202710	     21.29202710	      4.55539331	     -7.17025590	     10.22098692	     -9.81418039	      2.77894971	      5.04527947	     54.20333442	    -17.70225414	     -2.33419102	     70.26167221	     44.83772471	      0.00000000	      0.00000000	    -18.30143364	     -9.20489258	     13.87777648	     29.76055807	     44.10358525	      0.00000000	      0.00000000
     22.62621429	     -2.01572257	     -3.88361130	     11.04147431	      0.98259714	      0.92329136	      0.55358124	      7.17114766	      5.87356096	    -17.03455286	     20.13953287	     20.13953287	     17.64800627	     -6.07397917	     -1.50638599	     29.35174082	     -9.23084141	      4.21174678	     20.19873212	     20.19873212	      4.52760029	     -5.04956205	      9.60238276	     -9.75397189	      2.77101973	      5.04982984	     55.00129733	    -17.22809459	     -1.75845309	     73.26225258	     44.73508406	      0.00000000	      0.00000000	    -18.68833101	     -9.22418491	     14.33630043	     30.45076807	     44.05550021	      0.00000000	      0.00000000
     22.64985714	     -2.21440542	     -3.98098596	     11.29849199	      0.98159010	      0.92318636	      0.55161224	      6.85302464	      5.90064508	    -17.38748987	     19.62663932	     19.62663932	     17.60597995	     -5.80210305	     -1.70602268	     29.25048926	     -9.14352421	      3.99565770	     19.45808757	     19.45808757	      4.33040565	     -3.55775747	      8.58463504	     -9.57223495	      2.86698473	      5.43941326	     55.29100858	    -17.20310011	     -1.22827233	     76.47803613	     44.63581354	      0.00000000	      0.00000000	    -18.71526685	     -9.32916084	     14.93968737	     31.25459783	     44.01069109	      0.00000000	      0.00000000
